<svg xmlns="http://www.w3.org/2000/svg" height="892" viewBox="0 0 1326 892" xmlns:xlink="http://www.w3.org/1999/xlink" width="1326"><defs/><g transform="translate(-111.67,-107.75)"><path stroke="#101843" d="M1323.0,793.8L1323.0,.0L.0,.0L.0,793.8L1323.0,793.8z" stroke-width="2.666666746139526" id="shape1" fill="#ffffff" fill-rule="nonzero" transform="translate(113.000000,205.000000)"/><g id="shape2" transform="translate(206.000000,288.750000)"><path stroke="#101843" d="M532.0,53.0L532.0,7.0C532.0,3.1,528.9,.0,525.0,.0L7.0,.0C3.1,.0,.0,3.1,.0,7.0L.0,53.0C.0,56.9,3.1,60.0,7.0,60.0L525.0,60.0C528.9,60.0,532.0,56.9,532.0,53.0z" stroke-width="1" fill="#ffffff" fill-rule="nonzero"/><text style="fill:#454545;font-family:微软雅黑;font-size:11.00pt" xml:space="preserve"><tspan y="33.0" x="233.3">AXI-DMA</tspan></text></g><g id="shape3" transform="translate(206.000000,396.250000)"><path stroke="#101843" d="M100.0,53.0L100.0,7.0C100.0,3.1,96.9,.0,93.0,.0L7.0,.0C3.1,.0,.0,3.1,.0,7.0L.0,53.0C.0,56.9,3.1,60.0,7.0,60.0L93.0,60.0C96.9,60.0,100.0,56.9,100.0,53.0z" stroke-width="1" fill="#ffffff" fill-rule="nonzero"/><text style="fill:#454545;font-family:微软雅黑;font-size:11.00pt" xml:space="preserve"><tspan y="33.0" x="34.3">LWB</tspan></text></g><g id="shape4" transform="translate(348.000000,396.250000)"><path stroke="#101843" d="M100.0,53.0L100.0,7.0C100.0,3.1,96.9,.0,93.0,.0L7.0,.0C3.1,.0,.0,3.1,.0,7.0L.0,53.0C.0,56.9,3.1,60.0,7.0,60.0L93.0,60.0C96.9,60.0,100.0,56.9,100.0,53.0z" stroke-width="1" fill="#ffffff" fill-rule="nonzero"/><text style="fill:#454545;font-family:微软雅黑;font-size:11.00pt" xml:space="preserve"><tspan y="33.0" x="39.5">FIB</tspan></text></g><g id="shape5" transform="translate(490.000000,396.250000)"><path stroke="#101843" d="M100.0,53.0L100.0,7.0C100.0,3.1,96.9,.0,93.0,.0L7.0,.0C3.1,.0,.0,3.1,.0,7.0L.0,53.0C.0,56.9,3.1,60.0,7.0,60.0L93.0,60.0C96.9,60.0,100.0,56.9,100.0,53.0z" stroke-width="1" fill="#ffffff" fill-rule="nonzero"/><text style="fill:#454545;font-family:微软雅黑;font-size:11.00pt" xml:space="preserve"><tspan y="33.0" x="35.8">FOB</tspan></text></g><g id="shape6" transform="translate(206.000000,611.250000)"><path stroke="#101843" d="M239.0,53.0L239.0,7.0C239.0,3.1,235.9,.0,232.0,.0L7.0,.0C3.1,.0,.0,3.1,.0,7.0L.0,53.0C.0,56.9,3.1,60.0,7.0,60.0L232.0,60.0C235.9,60.0,239.0,56.9,239.0,53.0z" stroke-width="1" fill="#ffffff" fill-rule="nonzero"/><text style="fill:#454545;font-family:微软雅黑;font-size:11.00pt" xml:space="preserve"><tspan y="33.0" x="87.8">MAC Cell</tspan></text></g><g id="shape7" transform="translate(206.000000,705.750000)"><path stroke="#101843" d="M239.0,53.0L239.0,7.0C239.0,3.1,235.9,.0,232.0,.0L7.0,.0C3.1,.0,.0,3.1,.0,7.0L.0,53.0C.0,56.9,3.1,60.0,7.0,60.0L232.0,60.0C235.9,60.0,239.0,56.9,239.0,53.0z" stroke-width="1" fill="#ffffff" fill-rule="nonzero"/><text style="fill:#454545;font-family:微软雅黑;font-size:11.00pt" xml:space="preserve"><tspan y="33.0" x="87.8">MAC Cell</tspan></text></g><g id="shape8" transform="translate(206.000000,800.250000)"><path stroke="#101843" d="M239.0,53.0L239.0,7.0C239.0,3.1,235.9,.0,232.0,.0L7.0,.0C3.1,.0,.0,3.1,.0,7.0L.0,53.0C.0,56.9,3.1,60.0,7.0,60.0L232.0,60.0C235.9,60.0,239.0,56.9,239.0,53.0z" stroke-width="1" fill="#ffffff" fill-rule="nonzero"/><text style="fill:#454545;font-family:微软雅黑;font-size:11.00pt" xml:space="preserve"><tspan y="33.0" x="87.8">MAC Cell</tspan></text></g><g id="shape9" transform="translate(206.000000,894.750000)"><path stroke="#101843" d="M239.0,53.0L239.0,7.0C239.0,3.1,235.9,.0,232.0,.0L7.0,.0C3.1,.0,.0,3.1,.0,7.0L.0,53.0C.0,56.9,3.1,60.0,7.0,60.0L232.0,60.0C235.9,60.0,239.0,56.9,239.0,53.0z" stroke-width="1" fill="#ffffff" fill-rule="nonzero"/><text style="fill:#454545;font-family:微软雅黑;font-size:11.00pt" xml:space="preserve"><tspan y="33.0" x="87.8">MAC Cell</tspan></text></g><g id="shape10" transform="translate(493.000000,611.250000)"><path stroke="#101843" d="M100.0,53.0L100.0,7.0C100.0,3.1,96.9,.0,93.0,.0L7.0,.0C3.1,.0,.0,3.1,.0,7.0L.0,53.0C.0,56.9,3.1,60.0,7.0,60.0L93.0,60.0C96.9,60.0,100.0,56.9,100.0,53.0z" stroke-width="1" fill="#ffffff" fill-rule="nonzero"/><text style="fill:#454545;font-family:微软雅黑;font-size:11.00pt" xml:space="preserve"><tspan y="33.0" x="35.5">PPU</tspan></text></g><g id="shape11" transform="translate(493.000000,705.750000)"><path stroke="#101843" d="M100.0,53.0L100.0,7.0C100.0,3.1,96.9,.0,93.0,.0L7.0,.0C3.1,.0,.0,3.1,.0,7.0L.0,53.0C.0,56.9,3.1,60.0,7.0,60.0L93.0,60.0C96.9,60.0,100.0,56.9,100.0,53.0z" stroke-width="1" fill="#ffffff" fill-rule="nonzero"/><text style="fill:#454545;font-family:微软雅黑;font-size:11.00pt" xml:space="preserve"><tspan y="33.0" x="35.5">PPU</tspan></text></g><g id="shape12" transform="translate(493.000000,800.250000)"><path stroke="#101843" d="M100.0,53.0L100.0,7.0C100.0,3.1,96.9,.0,93.0,.0L7.0,.0C3.1,.0,.0,3.1,.0,7.0L.0,53.0C.0,56.9,3.1,60.0,7.0,60.0L93.0,60.0C96.9,60.0,100.0,56.9,100.0,53.0z" stroke-width="1" fill="#ffffff" fill-rule="nonzero"/><text style="fill:#454545;font-family:微软雅黑;font-size:11.00pt" xml:space="preserve"><tspan y="33.0" x="35.5">PPU</tspan></text></g><g id="shape13" transform="translate(493.000000,894.750000)"><path stroke="#101843" d="M100.0,53.0L100.0,7.0C100.0,3.1,96.9,.0,93.0,.0L7.0,.0C3.1,.0,.0,3.1,.0,7.0L.0,53.0C.0,56.9,3.1,60.0,7.0,60.0L93.0,60.0C96.9,60.0,100.0,56.9,100.0,53.0z" stroke-width="1" fill="#ffffff" fill-rule="nonzero"/><text style="fill:#454545;font-family:微软雅黑;font-size:11.00pt" xml:space="preserve"><tspan y="33.0" x="35.5">PPU</tspan></text></g><g id="shape14" transform="translate(638.000000,611.250000)"><path stroke="#101843" d="M100.0,53.0L100.0,7.0C100.0,3.1,96.9,.0,93.0,.0L7.0,.0C3.1,.0,.0,3.1,.0,7.0L.0,53.0C.0,56.9,3.1,60.0,7.0,60.0L93.0,60.0C96.9,60.0,100.0,56.9,100.0,53.0z" stroke-width="1" fill="#ffffff" fill-rule="nonzero"/><text style="fill:#454545;font-family:微软雅黑;font-size:11.00pt" xml:space="preserve"><tspan y="33.0" x="38.0">LFB</tspan></text></g><g id="shape15" transform="translate(638.000000,705.750000)"><path stroke="#101843" d="M100.0,53.0L100.0,7.0C100.0,3.1,96.9,.0,93.0,.0L7.0,.0C3.1,.0,.0,3.1,.0,7.0L.0,53.0C.0,56.9,3.1,60.0,7.0,60.0L93.0,60.0C96.9,60.0,100.0,56.9,100.0,53.0z" stroke-width="1" fill="#ffffff" fill-rule="nonzero"/><text style="fill:#454545;font-family:微软雅黑;font-size:11.00pt" xml:space="preserve"><tspan y="33.0" x="38.0">LFB</tspan></text></g><g id="shape16" transform="translate(638.000000,800.250000)"><path stroke="#101843" d="M100.0,53.0L100.0,7.0C100.0,3.1,96.9,.0,93.0,.0L7.0,.0C3.1,.0,.0,3.1,.0,7.0L.0,53.0C.0,56.9,3.1,60.0,7.0,60.0L93.0,60.0C96.9,60.0,100.0,56.9,100.0,53.0z" stroke-width="1" fill="#ffffff" fill-rule="nonzero"/><text style="fill:#454545;font-family:微软雅黑;font-size:11.00pt" xml:space="preserve"><tspan y="33.0" x="38.0">LFB</tspan></text></g><g id="shape17" transform="translate(638.000000,894.750000)"><path stroke="#101843" d="M100.0,53.0L100.0,7.0C100.0,3.1,96.9,.0,93.0,.0L7.0,.0C3.1,.0,.0,3.1,.0,7.0L.0,53.0C.0,56.9,3.1,60.0,7.0,60.0L93.0,60.0C96.9,60.0,100.0,56.9,100.0,53.0z" stroke-width="1" fill="#ffffff" fill-rule="nonzero"/><text style="fill:#454545;font-family:微软雅黑;font-size:11.00pt" xml:space="preserve"><tspan y="33.0" x="38.0">LFB</tspan></text></g><g id="shape18" transform="translate(348.000000,503.750000)"><path stroke="#101843" d="M239.0,53.0L239.0,7.0C239.0,3.1,235.9,.0,232.0,.0L7.0,.0C3.1,.0,.0,3.1,.0,7.0L.0,53.0C.0,56.9,3.1,60.0,7.0,60.0L232.0,60.0C235.9,60.0,239.0,56.9,239.0,53.0z" stroke-width="1" fill="#ffffff" fill-rule="nonzero"/><text style="fill:#454545;font-family:微软雅黑;font-size:11.00pt" xml:space="preserve"><tspan y="33.0" x="87.0">Local Ctrl</tspan></text></g><g id="shape19" transform="translate(467.500000,503.750000)"><path stroke="#191919" d="M.0,.0L.0,-28.0L-136.0,-28.0C-136.0,-31.3,-138.7,-34.0,-142.0,-34.0C-145.3,-34.0,-148.0,-31.3,-148.0,-28.0L-211.0,-28.0L-211.0,-41.0" stroke-width="1" fill="none"/><path stroke="#191919" d="M-214.0,-41.0L-211.0,-47.0L-208.0,-41.0L-214.0,-41.0" stroke-width="1" stroke-linecap="round" fill="#191919"/></g><g id="shape20" transform="translate(467.500000,503.750000)"><path stroke="#191919" d="M.0,.0L.0,-28.0L-69.0,-28.0L-69.0,-41.0" stroke-width="1" fill="none"/><path stroke="#191919" d="M-72.0,-41.0L-69.0,-47.0L-66.0,-41.0L-72.0,-41.0" stroke-width="1" stroke-linecap="round" fill="#191919"/></g><g id="shape21" transform="translate(467.500000,503.750000)"><path stroke="#191919" d="M.0,.0L.0,-28.0L73.0,-28.0L73.0,-41.0" stroke-width="1" fill="none"/><path stroke="#191919" d="M70.0,-41.0L73.0,-47.0L76.0,-41.0L70.0,-41.0" stroke-width="1" stroke-linecap="round" fill="#191919"/></g><g id="shape22" transform="translate(206.000000,426.250000)"><path stroke="#191919" d="M.0,.0L-28.0,.0L-28.0,215.0L-6.0,215.0" stroke-width="1" fill="none"/><path stroke="#191919" d="M-6.0,212.0L.0,215.0L-6.0,218.0L-6.0,212.0" stroke-width="1" stroke-linecap="round" fill="#191919"/></g><g id="shape23" transform="translate(206.000000,426.250000)"><path stroke="#191919" d="M.0,.0L-28.0,.0L-28.0,309.0L-6.0,309.0" stroke-width="1" fill="none"/><path stroke="#191919" d="M-6.0,306.0L.0,309.0L-6.0,312.0L-6.0,306.0" stroke-width="1" stroke-linecap="round" fill="#191919"/></g><g id="shape24" transform="translate(206.000000,426.250000)"><path stroke="#191919" d="M.0,.0L-28.0,.0L-28.0,404.0L-6.0,404.0" stroke-width="1" fill="none"/><path stroke="#191919" d="M-6.0,401.0L.0,404.0L-6.0,407.0L-6.0,401.0" stroke-width="1" stroke-linecap="round" fill="#191919"/></g><g id="shape25" transform="translate(206.000000,426.250000)"><path stroke="#191919" d="M.0,.0L-28.0,.0L-28.0,498.0L-6.0,498.0" stroke-width="1" fill="none"/><path stroke="#191919" d="M-6.0,495.0L.0,498.0L-6.0,501.0L-6.0,495.0" stroke-width="1" stroke-linecap="round" fill="#191919"/></g><g id="shape26" transform="translate(445.000000,641.250000)"><path stroke="#191919" d="M.0,.0L42.0,.0" stroke-width="1" fill="none"/><path stroke="#191919" d="M42.0,-3.0L48.0,.0L42.0,3.0L42.0,-3.0" stroke-width="1" stroke-linecap="round" fill="#191919"/></g><g id="shape27" transform="translate(593.000000,641.250000)"><path stroke="#191919" d="M.0,.0L39.0,.0" stroke-width="1" fill="none"/><path stroke="#191919" d="M39.0,-3.0L45.0,.0L39.0,3.0L39.0,-3.0" stroke-width="1" stroke-linecap="round" fill="#191919"/></g><g id="shape28" transform="translate(593.000000,735.750000)"><path stroke="#191919" d="M.0,.0L39.0,.0" stroke-width="1" fill="none"/><path stroke="#191919" d="M39.0,-3.0L45.0,.0L39.0,3.0L39.0,-3.0" stroke-width="1" stroke-linecap="round" fill="#191919"/></g><g id="shape29" transform="translate(593.000000,830.250000)"><path stroke="#191919" d="M.0,.0L39.0,.0" stroke-width="1" fill="none"/><path stroke="#191919" d="M39.0,-3.0L45.0,.0L39.0,3.0L39.0,-3.0" stroke-width="1" stroke-linecap="round" fill="#191919"/></g><g id="shape30" transform="translate(593.000000,924.750000)"><path stroke="#191919" d="M.0,.0L39.0,.0" stroke-width="1" fill="none"/><path stroke="#191919" d="M39.0,-3.0L45.0,.0L39.0,3.0L39.0,-3.0" stroke-width="1" stroke-linecap="round" fill="#191919"/></g><g id="shape31" transform="translate(325.500000,671.250000)"><path stroke="#191919" d="M.0,.0L.0,28.0" stroke-width="1" fill="none"/><path stroke="#191919" d="M3.0,28.0L.0,34.0L-3.0,28.0L3.0,28.0" stroke-width="1" stroke-linecap="round" fill="#191919"/></g><g id="shape32" transform="translate(325.500000,765.750000)"><path stroke="#191919" d="M.0,.0L.0,29.0" stroke-width="1" fill="none"/><path stroke="#191919" d="M3.0,29.0L.0,35.0L-3.0,29.0L3.0,29.0" stroke-width="1" stroke-linecap="round" fill="#191919"/></g><g id="shape33" transform="translate(325.500000,860.250000)"><path stroke="#191919" d="M.0,.0L.0,28.0" stroke-width="1" fill="none"/><path stroke="#191919" d="M3.0,28.0L.0,34.0L-3.0,28.0L3.0,28.0" stroke-width="1" stroke-linecap="round" fill="#191919"/></g><g id="shape34" transform="translate(738.000000,641.250000)"><path stroke="#191919" d="M.0,.0L28.0,.0L28.0,-215.0L-142.0,-215.0" stroke-width="1" fill="none"/><path stroke="#191919" d="M-142.0,-212.0L-148.0,-215.0L-142.0,-218.0L-142.0,-212.0" stroke-width="1" stroke-linecap="round" fill="#191919"/></g><g id="shape35" transform="translate(738.000000,735.750000)"><path stroke="#191919" d="M.0,.0L28.0,.0L28.0,-309.0L-142.0,-309.0" stroke-width="1" fill="none"/><path stroke="#191919" d="M-142.0,-306.0L-148.0,-309.0L-142.0,-312.0L-142.0,-306.0" stroke-width="1" stroke-linecap="round" fill="#191919"/></g><g id="shape36" transform="translate(738.000000,830.250000)"><path stroke="#191919" d="M.0,.0L28.0,.0L28.0,-404.0L-142.0,-404.0" stroke-width="1" fill="none"/><path stroke="#191919" d="M-142.0,-401.0L-148.0,-404.0L-142.0,-407.0L-142.0,-401.0" stroke-width="1" stroke-linecap="round" fill="#191919"/></g><g id="shape37" transform="translate(738.000000,924.750000)"><path stroke="#191919" d="M.0,.0L28.0,.0L28.0,-498.0L-142.0,-498.0" stroke-width="1" fill="none"/><path stroke="#191919" d="M-142.0,-495.0L-148.0,-498.0L-142.0,-501.0L-142.0,-495.0" stroke-width="1" stroke-linecap="round" fill="#191919"/></g><g id="shape38" transform="translate(445.000000,735.750000)"><path stroke="#191919" d="M.0,.0L42.0,.0" stroke-width="1" fill="none"/><path stroke="#191919" d="M42.0,-3.0L48.0,.0L42.0,3.0L42.0,-3.0" stroke-width="1" stroke-linecap="round" fill="#191919"/></g><g id="shape39" transform="translate(445.000000,830.250000)"><path stroke="#191919" d="M.0,.0L42.0,.0" stroke-width="1" fill="none"/><path stroke="#191919" d="M42.0,-3.0L48.0,.0L42.0,3.0L42.0,-3.0" stroke-width="1" stroke-linecap="round" fill="#191919"/></g><g id="shape40" transform="translate(445.000000,924.750000)"><path stroke="#191919" d="M.0,.0L42.0,.0" stroke-width="1" fill="none"/><path stroke="#191919" d="M42.0,-3.0L48.0,.0L42.0,3.0L42.0,-3.0" stroke-width="1" stroke-linecap="round" fill="#191919"/></g><g id="shape41" transform="translate(348.000000,426.250000)"><path stroke="#191919" d="M.0,.0L-22.5,.0L-22.5,179.0" stroke-width="1" fill="none"/><path stroke="#191919" d="M-19.5,179.0L-22.5,185.0L-25.5,179.0L-19.5,179.0" stroke-width="1" stroke-linecap="round" fill="#191919"/></g><g id="shape42" transform="translate(256.000000,396.250000)"><path stroke="#191919" d="M.0,-6.0L.0,-48.0" stroke-width="1" fill="none"/><path stroke="#191919" d="M3.0,-6.0L.0,.0L-3.0,-6.0L3.0,-6.0" stroke-width="1" stroke-linecap="round" fill="#191919"/></g><g id="shape43" transform="translate(398.000000,396.250000)"><path stroke="#191919" d="M.0,-6.0L.0,-48.0" stroke-width="1" fill="none"/><path stroke="#191919" d="M3.0,-6.0L.0,.0L-3.0,-6.0L3.0,-6.0" stroke-width="1" stroke-linecap="round" fill="#191919"/></g><g id="shape44" transform="translate(472.000000,288.750000)"><path stroke="#191919" d="M.0,.0L.0,-170.0" stroke-width="1" fill="none"/><path stroke="#191919" d="M-3.0,-170.0L.0,-176.0L3.0,-170.0L-3.0,-170.0" stroke-width="1" stroke-linecap="round" fill="#191919"/><rect y="-135.8" x="10.8" height="19.0" fill="#ffffff" width="115.5"/><text style="fill:#454545;font-family:微软雅黑;font-size:11.00pt" xml:space="preserve"><tspan y="-120.8" x="10.8">AXI4-Full Master</tspan></text></g><g id="shape45" transform="translate(1115.000000,288.750000)"><path stroke="#101843" d="M100.0,53.0L100.0,7.0C100.0,3.1,96.9,.0,93.0,.0L7.0,.0C3.1,.0,.0,3.1,.0,7.0L.0,53.0C.0,56.9,3.1,60.0,7.0,60.0L93.0,60.0C96.9,60.0,100.0,56.9,100.0,53.0z" stroke-width="1" fill="#ffffff" fill-rule="nonzero"/><text style="fill:#454545;font-family:微软雅黑;font-size:11.00pt" xml:space="preserve"><tspan y="33.0" x="36.3">CSR</tspan></text></g><g id="shape46" transform="translate(1165.000000,288.750000)"><path stroke="#191919" d="M.0,-6.0L.0,-176.0" stroke-width="1" fill="none"/><path stroke="#191919" d="M3.0,-6.0L.0,.0L-3.0,-6.0L3.0,-6.0" stroke-width="1" stroke-linecap="round" fill="#191919"/><rect y="-138.1" x="10.8" height="19.0" fill="#ffffff" width="104.5"/><text style="fill:#454545;font-family:微软雅黑;font-size:11.00pt" xml:space="preserve"><tspan y="-123.1" x="10.8">AXI4-Lite Slave</tspan></text></g><g id="shape47" transform="translate(952.000000,288.750000)"><path stroke="#101843" d="M100.0,53.0L100.0,7.0C100.0,3.1,96.9,.0,93.0,.0L7.0,.0C3.1,.0,.0,3.1,.0,7.0L.0,53.0C.0,56.9,3.1,60.0,7.0,60.0L93.0,60.0C96.9,60.0,100.0,56.9,100.0,53.0z" stroke-width="1" fill="#ffffff" fill-rule="nonzero"/><text style="fill:#454545;font-family:微软雅黑;font-size:11.00pt" xml:space="preserve"><tspan y="33.0" x="38.5">IFU</tspan></text></g><g id="shape48" transform="translate(738.000000,318.750000)"><path stroke="#191919" d="M.0,.0L208.0,.0" stroke-width="1" fill="none"/><path stroke="#191919" d="M208.0,-3.0L214.0,.0L208.0,3.0L208.0,-3.0" stroke-width="1" stroke-linecap="round" fill="#191919"/></g><g id="shape49" transform="translate(952.000000,396.250000)"><path stroke="#101843" d="M100.0,53.0L100.0,7.0C100.0,3.1,96.9,.0,93.0,.0L7.0,.0C3.1,.0,.0,3.1,.0,7.0L.0,53.0C.0,56.9,3.1,60.0,7.0,60.0L93.0,60.0C96.9,60.0,100.0,56.9,100.0,53.0z" stroke-width="1" fill="#ffffff" fill-rule="nonzero"/><text style="fill:#454545;font-family:微软雅黑;font-size:11.00pt" xml:space="preserve"><tspan y="33.0" x="27.0">Queen</tspan></text></g><g id="shape50" transform="translate(1002.000000,348.750000)"><path stroke="#191919" d="M.0,.0L.0,42.0" stroke-width="1" fill="none"/><path stroke="#191919" d="M3.0,42.0L.0,48.0L-3.0,42.0L3.0,42.0" stroke-width="1" stroke-linecap="round" fill="#191919"/></g><g id="shape51" transform="translate(952.000000,503.750000)"><path stroke="#101843" d="M100.0,53.0L100.0,7.0C100.0,3.1,96.9,.0,93.0,.0L7.0,.0C3.1,.0,.0,3.1,.0,7.0L.0,53.0C.0,56.9,3.1,60.0,7.0,60.0L93.0,60.0C96.9,60.0,100.0,56.9,100.0,53.0z" stroke-width="1" fill="#ffffff" fill-rule="nonzero"/><text style="fill:#454545;font-family:微软雅黑;font-size:11.00pt" xml:space="preserve"><tspan y="33.0" x="20.8">Decoder</tspan></text></g><g id="shape52" transform="translate(952.000000,611.250000)"><path stroke="#101843" d="M263.0,147.5L263.0,7.0C263.0,3.1,259.9,.0,256.0,.0L7.0,.0C3.1,.0,.0,3.1,.0,7.0L.0,147.5C.0,151.4,3.1,154.5,7.0,154.5L256.0,154.5C259.9,154.5,263.0,151.4,263.0,147.5z" stroke-width="1" fill="#ffffff" fill-rule="nonzero"/><text style="fill:#454545;font-family:微软雅黑;font-size:11.00pt" xml:space="preserve"><tspan y="80.3" x="116.5">FSM</tspan></text></g><g id="shape53" transform="translate(1165.000000,348.750000)"><path stroke="#191919" d="M.0,.0L.0,257.0" stroke-width="1" fill="none"/><path stroke="#191919" d="M3.0,257.0L.0,263.0L-3.0,257.0L3.0,257.0" stroke-width="1" stroke-linecap="round" fill="#191919"/></g><g id="shape54" transform="translate(1002.000000,563.000000)"><path stroke="#191919" d="M.0,.0L.0,42.0" stroke-width="1" fill="none"/><path stroke="#191919" d="M3.0,42.0L.0,48.0L-3.0,42.0L3.0,42.0" stroke-width="1" stroke-linecap="round" fill="#191919"/></g><g id="shape55" transform="translate(1002.000000,456.000000)"><path stroke="#191919" d="M.0,.0L.0,41.0" stroke-width="1" fill="none"/><path stroke="#191919" d="M3.0,41.0L.0,47.0L-3.0,41.0L3.0,41.0" stroke-width="1" stroke-linecap="round" fill="#191919"/></g><g id="shape56" transform="translate(540.000000,396.250000)"><path stroke="#191919" d="M.0,.0L.0,-42.0" stroke-width="1" fill="none"/><path stroke="#191919" d="M-3.0,-42.0L.0,-48.0L3.0,-42.0L-3.0,-42.0" stroke-width="1" stroke-linecap="round" fill="#191919"/></g><g id="shape57" transform="translate(587.000000,536.000000)"><path stroke="#191919" d="M6.0,.0L173.0,.0C173.0,-3.3,175.7,-6.0,179.0,-6.0C182.3,-6.0,185.0,-3.3,185.0,.0L337.0,.0L337.0,152.0L365.0,152.0" stroke-width="1" fill="none"/><path stroke="#191919" d="M6.0,3.0L.0,.0L6.0,-3.0L6.0,3.0" stroke-width="1" stroke-linecap="round" fill="#191919"/></g><g id="shape58" transform="translate(1215.000000,688.500000)"><path stroke="#191919" d="M.0,.0L108.0,.0L108.0,-569.0" stroke-width="1" fill="none"/><path stroke="#191919" d="M105.0,-569.0L108.0,-575.0L111.0,-569.0L105.0,-569.0" stroke-width="1" stroke-linecap="round" fill="#191919"/><rect y="-558.4" x="116.5" height="19.0" fill="#ffffff" width="26.0"/><text style="fill:#454545;font-family:微软雅黑;font-size:11.00pt" xml:space="preserve"><tspan y="-543.4" x="116.5">IRQ</tspan></text></g></g></svg>