<svg xmlns="http://www.w3.org/2000/svg" height="680" viewBox="0 0 503 680" xmlns:xlink="http://www.w3.org/1999/xlink" width="503"><defs/><g transform="translate(-267.00,-38.88)"><g id="shape1" transform="translate(300.000000,374.500000)"><path stroke="#101843" d="M239.0,53.0L239.0,7.0C239.0,3.1,235.9,.0,232.0,.0L7.0,.0C3.1,.0,.0,3.1,.0,7.0L.0,53.0C.0,56.9,3.1,60.0,7.0,60.0L232.0,60.0C235.9,60.0,239.0,56.9,239.0,53.0z" stroke-width="1" fill="#ffffff" fill-rule="nonzero"/><text style="fill:#454545;font-family:微软雅黑;font-size:11.00pt" xml:space="preserve"><tspan y="33.0" x="87.8">MAC Cell</tspan></text></g><g id="shape2" transform="translate(300.000000,469.000000)"><path stroke="#101843" d="M239.0,53.0L239.0,7.0C239.0,3.1,235.9,.0,232.0,.0L7.0,.0C3.1,.0,.0,3.1,.0,7.0L.0,53.0C.0,56.9,3.1,60.0,7.0,60.0L232.0,60.0C235.9,60.0,239.0,56.9,239.0,53.0z" stroke-width="1" fill="#ffffff" fill-rule="nonzero"/><text style="fill:#454545;font-family:微软雅黑;font-size:11.00pt" xml:space="preserve"><tspan y="33.0" x="87.8">MAC Cell</tspan></text></g><g id="shape3" transform="translate(300.000000,563.500000)"><path stroke="#101843" d="M239.0,53.0L239.0,7.0C239.0,3.1,235.9,.0,232.0,.0L7.0,.0C3.1,.0,.0,3.1,.0,7.0L.0,53.0C.0,56.9,3.1,60.0,7.0,60.0L232.0,60.0C235.9,60.0,239.0,56.9,239.0,53.0z" stroke-width="1" fill="#ffffff" fill-rule="nonzero"/><text style="fill:#454545;font-family:微软雅黑;font-size:11.00pt" xml:space="preserve"><tspan y="33.0" x="87.8">MAC Cell</tspan></text></g><g id="shape4" transform="translate(300.000000,658.000000)"><path stroke="#101843" d="M239.0,53.0L239.0,7.0C239.0,3.1,235.9,.0,232.0,.0L7.0,.0C3.1,.0,.0,3.1,.0,7.0L.0,53.0C.0,56.9,3.1,60.0,7.0,60.0L232.0,60.0C235.9,60.0,239.0,56.9,239.0,53.0z" stroke-width="1" fill="#ffffff" fill-rule="nonzero"/><text style="fill:#454545;font-family:微软雅黑;font-size:11.00pt" xml:space="preserve"><tspan y="33.0" x="87.8">MAC Cell</tspan></text></g><g id="shape5" transform="translate(637.000000,374.500000)"><path stroke="#101843" d="M100.0,53.0L100.0,7.0C100.0,3.1,96.9,.0,93.0,.0L7.0,.0C3.1,.0,.0,3.1,.0,7.0L.0,53.0C.0,56.9,3.1,60.0,7.0,60.0L93.0,60.0C96.9,60.0,100.0,56.9,100.0,53.0z" stroke-width="1" fill="#ffffff" fill-rule="nonzero"/><text style="fill:#454545;font-family:微软雅黑;font-size:11.00pt" xml:space="preserve"><tspan y="33.0" x="35.5">PPU</tspan></text></g><g id="shape6" transform="translate(637.000000,469.000000)"><path stroke="#101843" d="M100.0,53.0L100.0,7.0C100.0,3.1,96.9,.0,93.0,.0L7.0,.0C3.1,.0,.0,3.1,.0,7.0L.0,53.0C.0,56.9,3.1,60.0,7.0,60.0L93.0,60.0C96.9,60.0,100.0,56.9,100.0,53.0z" stroke-width="1" fill="#ffffff" fill-rule="nonzero"/><text style="fill:#454545;font-family:微软雅黑;font-size:11.00pt" xml:space="preserve"><tspan y="33.0" x="35.5">PPU</tspan></text></g><g id="shape7" transform="translate(637.000000,563.500000)"><path stroke="#101843" d="M100.0,53.0L100.0,7.0C100.0,3.1,96.9,.0,93.0,.0L7.0,.0C3.1,.0,.0,3.1,.0,7.0L.0,53.0C.0,56.9,3.1,60.0,7.0,60.0L93.0,60.0C96.9,60.0,100.0,56.9,100.0,53.0z" stroke-width="1" fill="#ffffff" fill-rule="nonzero"/><text style="fill:#454545;font-family:微软雅黑;font-size:11.00pt" xml:space="preserve"><tspan y="33.0" x="35.5">PPU</tspan></text></g><g id="shape8" transform="translate(637.000000,658.000000)"><path stroke="#101843" d="M100.0,53.0L100.0,7.0C100.0,3.1,96.9,.0,93.0,.0L7.0,.0C3.1,.0,.0,3.1,.0,7.0L.0,53.0C.0,56.9,3.1,60.0,7.0,60.0L93.0,60.0C96.9,60.0,100.0,56.9,100.0,53.0z" stroke-width="1" fill="#ffffff" fill-rule="nonzero"/><text style="fill:#454545;font-family:微软雅黑;font-size:11.00pt" xml:space="preserve"><tspan y="33.0" x="35.5">PPU</tspan></text></g><g id="shape9" transform="translate(539.000000,404.500000)"><path stroke="#191919" d="M.0,.0L92.0,.0" stroke-width="1" fill="none"/><path stroke="#191919" d="M92.0,-3.0L98.0,.0L92.0,3.0L92.0,-3.0" stroke-width="1" stroke-linecap="round" fill="#191919"/><rect y="-28.5" x="19.7" height="19.0" fill="#ffffff" width="56.0"/><text style="fill:#454545;font-family:微软雅黑;font-size:11.00pt" xml:space="preserve"><tspan y="-13.5" x="19.7">MacOut</tspan></text></g><g id="shape10" transform="translate(419.500000,434.500000)"><path stroke="#191919" d="M.0,.0L.0,28.5" stroke-width="1" fill="none"/><path stroke="#191919" d="M3.0,28.5L.0,34.5L-3.0,28.5L3.0,28.5" stroke-width="1" stroke-linecap="round" fill="#191919"/></g><g id="shape11" transform="translate(419.500000,529.000000)"><path stroke="#191919" d="M.0,.0L.0,28.5" stroke-width="1" fill="none"/><path stroke="#191919" d="M3.0,28.5L.0,34.5L-3.0,28.5L3.0,28.5" stroke-width="1" stroke-linecap="round" fill="#191919"/></g><g id="shape12" transform="translate(419.500000,623.500000)"><path stroke="#191919" d="M.0,.0L.0,28.5" stroke-width="1" fill="none"/><path stroke="#191919" d="M3.0,28.5L.0,34.5L-3.0,28.5L3.0,28.5" stroke-width="1" stroke-linecap="round" fill="#191919"/></g><g id="shape13" transform="translate(539.000000,499.000000)"><path stroke="#191919" d="M.0,.0L92.0,.0" stroke-width="1" fill="none"/><path stroke="#191919" d="M92.0,-3.0L98.0,.0L92.0,3.0L92.0,-3.0" stroke-width="1" stroke-linecap="round" fill="#191919"/><rect y="-28.5" x="21.4" height="19.0" fill="#ffffff" width="56.0"/><text style="fill:#454545;font-family:微软雅黑;font-size:11.00pt" xml:space="preserve"><tspan y="-13.5" x="21.4">MacOut</tspan></text></g><g id="shape14" transform="translate(539.000000,593.500000)"><path stroke="#191919" d="M.0,.0L92.0,.0" stroke-width="1" fill="none"/><path stroke="#191919" d="M92.0,-3.0L98.0,.0L92.0,3.0L92.0,-3.0" stroke-width="1" stroke-linecap="round" fill="#191919"/><rect y="-28.5" x="23.8" height="19.0" fill="#ffffff" width="56.0"/><text style="fill:#454545;font-family:微软雅黑;font-size:11.00pt" xml:space="preserve"><tspan y="-13.5" x="23.8">MacOut</tspan></text></g><g id="shape15" transform="translate(539.000000,688.000000)"><path stroke="#191919" d="M.0,.0L92.0,.0" stroke-width="1" fill="none"/><path stroke="#191919" d="M92.0,-3.0L98.0,.0L92.0,3.0L92.0,-3.0" stroke-width="1" stroke-linecap="round" fill="#191919"/><rect y="-28.5" x="21.0" height="19.0" fill="#ffffff" width="56.0"/><text style="fill:#454545;font-family:微软雅黑;font-size:11.00pt" xml:space="preserve"><tspan y="-13.5" x="21.0">MacOut</tspan></text></g><g id="shape16" transform="translate(300.000000,251.500000)"><path stroke="#101843" d="M425.0,76.0C431.6,76.0,437.0,70.6,437.0,64.0L437.0,12.0C437.0,5.4,431.6,.0,425.0,.0L12.0,.0C5.4,.0,.0,5.4,.0,12.0L.0,64.0C.0,70.6,5.4,76.0,12.0,76.0L425.0,76.0z" stroke-width="1" fill="#ffffff" fill-rule="nonzero"/><text style="fill:#454545;font-family:微软雅黑;font-size:11.00pt" xml:space="preserve"><tspan y="41.0" x="182.0">PE Control</tspan></text></g><g id="shape17" transform="translate(300.000000,289.500000)"><path stroke="#191919" d="M.0,.0L-28.0,.0L-28.0,115.0L-6.0,115.0" stroke-width="1" fill="none"/><path stroke="#191919" d="M-6.0,112.0L.0,115.0L-6.0,118.0L-6.0,112.0" stroke-width="1" stroke-linecap="round" fill="#191919"/></g><g id="shape18" transform="translate(300.000000,289.500000)"><path stroke="#191919" d="M.0,.0L-28.0,.0L-28.0,210.0L-6.0,210.0" stroke-width="1" fill="none"/><path stroke="#191919" d="M-6.0,207.0L.0,210.0L-6.0,213.0L-6.0,207.0" stroke-width="1" stroke-linecap="round" fill="#191919"/></g><g id="shape19" transform="translate(300.000000,289.500000)"><path stroke="#191919" d="M.0,.0L-28.0,.0L-28.0,304.0L-6.0,304.0" stroke-width="1" fill="none"/><path stroke="#191919" d="M-6.0,301.0L.0,304.0L-6.0,307.0L-6.0,301.0" stroke-width="1" stroke-linecap="round" fill="#191919"/></g><g id="shape20" transform="translate(300.000000,289.500000)"><path stroke="#191919" d="M.0,.0L-28.0,.0L-28.0,399.0L-6.0,399.0" stroke-width="1" fill="none"/><path stroke="#191919" d="M-6.0,396.0L.0,399.0L-6.0,402.0L-6.0,396.0" stroke-width="1" stroke-linecap="round" fill="#191919"/></g><g id="shape21" transform="translate(419.500000,374.500000)"><path stroke="#191919" d="M.0,-6.0L.0,-47.0" stroke-width="1" fill="none"/><path stroke="#191919" d="M3.0,-6.0L.0,.0L-3.0,-6.0L3.0,-6.0" stroke-width="1" stroke-linecap="round" fill="#191919"/></g><g id="shape22" transform="translate(737.000000,404.500000)"><path stroke="#191919" d="M.0,.0L28.0,.0L28.0,-115.0L6.0,-115.0" stroke-width="1" fill="none"/><path stroke="#191919" d="M6.0,-112.0L.0,-115.0L6.0,-118.0L6.0,-112.0" stroke-width="1" stroke-linecap="round" fill="#191919"/></g><g id="shape23" transform="translate(737.000000,499.000000)"><path stroke="#191919" d="M.0,.0L28.0,.0L28.0,-210.0L6.0,-210.0" stroke-width="1" fill="none"/><path stroke="#191919" d="M6.0,-207.0L.0,-210.0L6.0,-213.0L6.0,-207.0" stroke-width="1" stroke-linecap="round" fill="#191919"/></g><g id="shape24" transform="translate(737.000000,593.500000)"><path stroke="#191919" d="M.0,.0L28.0,.0L28.0,-304.0L6.0,-304.0" stroke-width="1" fill="none"/><path stroke="#191919" d="M6.0,-301.0L.0,-304.0L6.0,-307.0L6.0,-301.0" stroke-width="1" stroke-linecap="round" fill="#191919"/></g><g id="shape25" transform="translate(737.000000,688.000000)"><path stroke="#191919" d="M.0,.0L28.0,.0L28.0,-399.0L6.0,-399.0" stroke-width="1" fill="none"/><path stroke="#191919" d="M6.0,-396.0L.0,-399.0L6.0,-402.0L6.0,-396.0" stroke-width="1" stroke-linecap="round" fill="#191919"/></g><g id="shape26" transform="translate(300.000000,143.750000)"><path stroke="#101843" d="M120.0,76.0C126.6,76.0,132.0,70.6,132.0,64.0L132.0,12.0C132.0,5.4,126.6,.0,120.0,.0L12.0,.0C5.4,.0,.0,5.4,.0,12.0L.0,64.0C.0,70.6,5.4,76.0,12.0,76.0L120.0,76.0z" stroke-width="1" fill="#ffffff" fill-rule="nonzero"/><text style="fill:#454545;font-family:微软雅黑;font-size:11.00pt" xml:space="preserve"><tspan y="41.0" x="32.5">Addr Gen</tspan></text></g><g id="shape27" transform="translate(330.792000,219.750000)"><path stroke="#191919" d="M.0,.0L.0,26.0" stroke-width="1" fill="none"/><path stroke="#191919" d="M3.0,26.0L.0,32.0L-3.0,26.0L3.0,26.0" stroke-width="1" stroke-linecap="round" fill="#191919"/></g><g id="shape28" transform="translate(366.000000,219.750000)"><path stroke="#191919" d="M.0,.0L.0,26.0" stroke-width="1" fill="none"/><path stroke="#191919" d="M3.0,26.0L.0,32.0L-3.0,26.0L3.0,26.0" stroke-width="1" stroke-linecap="round" fill="#191919"/></g><g id="shape29" transform="translate(400.668000,219.750000)"><path stroke="#191919" d="M.0,.0L.0,26.0" stroke-width="1" fill="none"/><path stroke="#191919" d="M3.0,26.0L.0,32.0L-3.0,26.0L3.0,26.0" stroke-width="1" stroke-linecap="round" fill="#191919"/></g><g id="shape30" transform="translate(366.000000,143.750000)"><path stroke="#191919" d="M.0,-6.0L.0,-99.9" stroke-width="1" fill="none"/><path stroke="#191919" d="M3.0,-6.0L.0,.0L-3.0,-6.0L3.0,-6.0" stroke-width="1" stroke-linecap="round" fill="#191919"/><rect y="-62.9" x="-14.5" height="19.0" fill="#ffffff" width="31.0"/><text style="fill:#454545;font-family:微软雅黑;font-size:11.00pt" xml:space="preserve"><tspan y="-47.9" x="-14.5">Task</tspan></text></g><g id="shape31" transform="translate(366.000000,143.750000)"><path stroke="#191919" d="M.0,.0L.0,-28.0L96.0,-28.0L96.0,102.0" stroke-width="1" fill="none"/><path stroke="#191919" d="M99.0,102.0L96.0,108.0L93.0,102.0L99.0,102.0" stroke-width="1" stroke-linecap="round" fill="#191919"/></g><g id="shape32" transform="translate(549.062000,251.500000)"><path stroke="#191919" d="M.0,-6.0L.0,-189.0" stroke-width="1" fill="none"/><path stroke="#191919" d="M3.0,-6.0L.0,.0L-3.0,-6.0L3.0,-6.0" stroke-width="1" stroke-linecap="round" fill="#191919"/><rect y="-171.6" x="-19.3" height="19.0" fill="#ffffff" width="40.5"/><text style="fill:#454545;font-family:微软雅黑;font-size:11.00pt" xml:space="preserve"><tspan y="-156.6" x="-19.3">wPort</tspan></text></g><g id="shape33" transform="translate(611.425000,251.500000)"><path stroke="#191919" d="M.0,-6.0L.0,-189.0" stroke-width="1" fill="none"/><path stroke="#191919" d="M3.0,-6.0L.0,.0L-3.0,-6.0L3.0,-6.0" stroke-width="1" stroke-linecap="round" fill="#191919"/><rect y="-172.7" x="-22.5" height="19.0" fill="#ffffff" width="47.0"/><text style="fill:#454545;font-family:微软雅黑;font-size:11.00pt" xml:space="preserve"><tspan y="-157.7" x="-22.5">finPort</tspan></text></g><g id="shape34" transform="translate(675.000000,250.875000)"><path stroke="#191919" d="M.0,.0L.0,-182.0" stroke-width="1" fill="none"/><path stroke="#191919" d="M-3.0,-182.0L.0,-188.0L3.0,-182.0L-3.0,-182.0" stroke-width="1" stroke-linecap="round" fill="#191919"/><rect y="-170.7" x="-27.8" height="19.0" fill="#ffffff" width="57.5"/><text style="fill:#454545;font-family:微软雅黑;font-size:11.00pt" xml:space="preserve"><tspan y="-155.7" x="-27.8">foutPort</tspan></text></g><g id="shape35" transform="translate(518.000000,327.000000)"><path stroke="#191919" d="M.0,.0L.0,28.0L169.0,28.0L169.0,41.0" stroke-width="1" fill="none"/><path stroke="#191919" d="M172.0,41.0L169.0,47.0L166.0,41.0L172.0,41.0" stroke-width="1" stroke-linecap="round" fill="#191919"/></g><g id="shape36" transform="translate(687.000000,434.000000)"><path stroke="#191919" d="M.0,.0L.0,29.0" stroke-width="1" fill="none"/><path stroke="#191919" d="M3.0,29.0L.0,35.0L-3.0,29.0L3.0,29.0" stroke-width="1" stroke-linecap="round" fill="#191919"/></g><g id="shape37" transform="translate(687.000000,529.000000)"><path stroke="#191919" d="M.0,.0L.0,28.0" stroke-width="1" fill="none"/><path stroke="#191919" d="M3.0,28.0L.0,34.0L-3.0,28.0L3.0,28.0" stroke-width="1" stroke-linecap="round" fill="#191919"/></g><g id="shape38" transform="translate(687.000000,623.000000)"><path stroke="#191919" d="M.0,.0L.0,29.0" stroke-width="1" fill="none"/><path stroke="#191919" d="M3.0,29.0L.0,35.0L-3.0,29.0L3.0,29.0" stroke-width="1" stroke-linecap="round" fill="#191919"/></g></g></svg>